# xmcd CD database file
#
# Track frame offsets:
#	150
#	6072
#	26346
#	44217
#	68547
#	88686
#	120566
#	137451
#	154794
#	181299
#	197502
#
# Disc length: 3032 seconds
#
# Revision: 1
# Processed by: cddbd v1.5.1PL2 Copyright (c) Steve Scherf et al.
# Submitted via: CDex 1.51
#
DISCID=850bd60b
DTITLE=スキマスイッチ - 空創クリップ
DYEAR=1900
DGENRE=
TTITLE0=君に告げる
TTITLE1=全力少年
TTITLE2=水色のスカート
TTITLE3=冬の口笛 (feat Takuya Ver.)
TTITLE4=フィクション
TTITLE5=さみしくとも明日を待つ (Album Ver.)
TTITLE6=キレイだ
TTITLE7=かけら ほのか
TTITLE8=目が覚めて
TTITLE9=飲みに来ないか
TTITLE10=雨待ち風 (Album Ver.)
EXTD=
EXTT0=
EXTT1=
EXTT2=
EXTT3=
EXTT4=
EXTT5=
EXTT6=
EXTT7=
EXTT8=
EXTT9=
EXTT10=
PLAYORDER=
